<svg width="60" height="60" viewBox="0 0 60 60" fill="none" xmlns="http://www.w3.org/2000/svg">
<path d="M48.75 7.5H11.25C10.2554 7.5 9.30161 7.89509 8.59835 8.59835C7.89509 9.30161 7.5 10.2554 7.5 11.25V48.75C7.5 49.7446 7.89509 50.6984 8.59835 51.4016C9.30161 52.1049 10.2554 52.5 11.25 52.5H48.75C49.7446 52.5 50.6984 52.1049 51.4016 51.4016C52.1049 50.6984 52.5 49.7446 52.5 48.75V11.25C52.5 10.2554 52.1049 9.30161 51.4016 8.59835C50.6984 7.89509 49.7446 7.5 48.75 7.5ZM30 43.125C27.4041 43.125 24.8665 42.3552 22.7081 40.913C20.5497 39.4708 18.8675 37.421 17.8741 35.0227C16.8807 32.6244 16.6208 29.9854 17.1272 27.4394C17.6336 24.8934 18.8837 22.5548 20.7192 20.7192C22.5548 18.8837 24.8934 17.6336 27.4394 17.1272C29.9854 16.6208 32.6244 16.8807 35.0227 17.8741C37.421 18.8675 39.4708 20.5497 40.913 22.7081C42.3552 24.8665 43.125 27.4041 43.125 30C43.125 33.481 41.7422 36.8194 39.2808 39.2808C36.8194 41.7422 33.481 43.125 30 43.125ZM44.0625 18.75C43.5062 18.75 42.9625 18.5851 42.5 18.276C42.0374 17.967 41.677 17.5277 41.4641 17.0138C41.2512 16.4999 41.1955 15.9344 41.304 15.3888C41.4126 14.8432 41.6804 14.3421 42.0738 13.9488C42.4671 13.5554 42.9682 13.2876 43.5138 13.179C44.0594 13.0705 44.6249 13.1262 45.1388 13.3391C45.6527 13.552 46.092 13.9124 46.401 14.375C46.71 14.8375 46.875 15.3812 46.875 15.9375C46.875 16.6834 46.5787 17.3988 46.0512 17.9262C45.5238 18.4537 44.8084 18.75 44.0625 18.75ZM31.3266 25.7016L23.8266 33.2016C23.6524 33.3758 23.4455 33.514 23.2179 33.6082C22.9903 33.7025 22.7464 33.751 22.5 33.751C22.2536 33.751 22.0097 33.7025 21.7821 33.6082C21.5545 33.514 21.3476 33.3758 21.1734 33.2016C20.9992 33.0274 20.861 32.8205 20.7668 32.5929C20.6725 32.3653 20.624 32.1214 20.624 31.875C20.624 31.6286 20.6725 31.3847 20.7668 31.1571C20.861 30.9295 20.9992 30.7226 21.1734 30.5484L28.6734 23.0484C29.0253 22.6966 29.5024 22.499 30 22.499C30.4976 22.499 30.9747 22.6966 31.3266 23.0484C31.6784 23.4003 31.876 23.8774 31.876 24.375C31.876 24.8726 31.6784 25.3497 31.3266 25.7016ZM38.8266 24.9234C39.0009 25.0976 39.1392 25.3044 39.2336 25.532C39.3279 25.7596 39.3765 26.0036 39.3765 26.25C39.3765 26.4964 39.3279 26.7404 39.2336 26.968C39.1392 27.1956 39.0009 27.4024 38.8266 27.5766L27.5766 38.8266C27.4024 39.0008 27.1955 39.139 26.9679 39.2332C26.7403 39.3275 26.4964 39.376 26.25 39.376C26.0036 39.376 25.7597 39.3275 25.5321 39.2332C25.3045 39.139 25.0976 39.0008 24.9234 38.8266C24.7492 38.6524 24.611 38.4455 24.5168 38.2179C24.4225 37.9903 24.374 37.7464 24.374 37.5C24.374 37.2536 24.4225 37.0097 24.5168 36.7821C24.611 36.5545 24.7492 36.3476 24.9234 36.1734L36.1734 24.9234C36.3476 24.7491 36.5544 24.6108 36.782 24.5165C37.0096 24.4221 37.2536 24.3735 37.5 24.3735C37.7464 24.3735 37.9904 24.4221 38.218 24.5165C38.4456 24.6108 38.6524 24.7491 38.8266 24.9234Z" fill="#978667"/>
</svg>
